# File created by Blade
# Date/Time:  Tue Jan 27 18:12:42 2015
# Frame Rate: 120.000 fps
#------------------------------------------------------
:FULLY-SPECIFIED
:DEGREES
3155
root -1.446952 31.842628 -6.463582 6.907166 2.876275 2.545671
Spine -5.558296 -20.146756 -3.350132
Head 13.975433 7.949807 14.013706
LeftShoulder -16.390776 18.675006 3.990029
LeftArm 27.669256 39.021704 -67.336279
LeftForeArm -1.125950 -0.000000 16.800479
LeftHand -11.534910 0.000000 -2.477171
LeftHandThumb1 -26.253704 0.000000 33.147579
RightShoulder -17.355109 -10.237866 -21.596720
RightArm 10.389424 -12.783526 39.929499
RightForeArm 18.258848 0.000000 88.628350
RightHand -15.503558 0.000000 14.807378
RightHandThumb1 -24.326973 -0.000000 -32.862282
LeftUpLeg -1.889955 1.775717 -0.722661
LeftLeg 0.672352 -0.000000 -0.000000
LeftFoot -19.143594 17.729594 -25.185081
LeftToeBase 8.642053 -0.000000 -0.000000
RightUpLeg -0.732343 -0.998436 -3.359925
RightLeg -2.725984 -0.000000 0.000000
RightFoot -14.957270 -12.654658 9.751051
RightToeBase 4.922333 -0.000000 -0.000000
3156
root -1.449912 31.842841 -6.467091 6.880429 2.826374 2.540996
Spine -5.553749 -20.080379 -3.380842
Head 13.945277 7.613207 13.973668
LeftShoulder -16.376255 18.707590 3.994344
LeftArm 27.797854 39.010002 -67.209047
LeftForeArm -1.134374 -0.000000 16.886206
LeftHand -11.736271 -0.000000 -2.554748
LeftHandThumb1 -26.253704 0.000000 33.147579
RightShoulder -17.220615 -10.369695 -21.674106
RightArm 11.583032 -15.516105 38.852786
RightForeArm 17.196160 -0.000000 87.920233
RightHand -15.362947 -0.000000 15.457415
RightHandThumb1 -24.326973 -0.000000 -32.862282
LeftUpLeg -1.877105 1.815118 -0.720181
LeftLeg 0.699856 -0.000000 -0.000000
LeftFoot -19.175864 17.743353 -25.213727
LeftToeBase 8.657163 -0.000000 -0.000000
RightUpLeg -0.726909 -0.981555 -3.353706
RightLeg -2.715256 -0.000000 0.000000
RightFoot -14.943504 -12.632381 9.720406
RightToeBase 4.912853 -0.000000 -0.000000
3157
root -1.453301 31.842780 -6.468974 6.839901 2.784544 2.531678
Spine -5.522490 -19.992406 -3.411269
Head 13.884551 7.254441 13.884287
LeftShoulder -16.352987 18.713873 4.006407
LeftArm 27.910102 39.011759 -67.096380
LeftForeArm -1.167818 0.000000 16.948095
LeftHand -11.761065 -0.000000 -2.508551
LeftHandThumb1 -26.253704 0.000000 33.147579
RightShoulder -17.103238 -10.456090 -21.745791
RightArm 12.786901 -18.264411 37.722845
RightForeArm 16.702518 -0.000000 87.237083
RightHand -15.376307 -0.000000 15.944540
RightHandThumb1 -24.326973 -0.000000 -32.862282
LeftUpLeg -1.836733 1.842241 -0.711355
LeftLeg 0.696322 -0.000000 -0.000000
LeftFoot -19.176361 17.780301 -25.191310
LeftToeBase 8.651623 -0.000000 -0.000000
RightUpLeg -0.698500 -0.944504 -3.344755
RightLeg -2.715579 -0.000000 0.000000
RightFoot -14.938997 -12.615194 9.734935
RightToeBase 4.925138 -0.000000 -0.000000
3158
root -1.456391 31.843364 -6.475294 6.827448 2.750481 2.518599
Spine -5.513603 -19.899120 -3.426463
Head 13.812016 6.913522 13.845384
LeftShoulder -16.324637 18.695445 4.016571
LeftArm 27.986015 38.972009 -67.027225
LeftForeArm -1.199908 -0.000000 17.010488
LeftHand -11.692466 0.000000 -2.508027
LeftHandThumb1 -26.253704 0.000000 33.147579
RightShoulder -16.896913 -10.470063 -21.836389
RightArm 13.837218 -20.948264 36.644156
RightForeArm 16.724983 -0.000000 86.614490
RightHand -15.447759 -0.000000 16.446706
RightHandThumb1 -24.326973 -0.000000 -32.862282
LeftUpLeg -1.845287 1.843604 -0.696868
LeftLeg 0.720726 -0.000000 -0.000000
LeftFoot -19.210180 17.807959 -25.222038
LeftToeBase 8.679051 -0.000000 -0.000000
RightUpLeg -0.716751 -0.924141 -3.331183
RightLeg -2.690730 -0.000000 0.000000
RightFoot -14.928494 -12.595825 9.715893
RightToeBase 4.929181 -0.000000 -0.000000
3159
root -1.458887 31.843462 -6.479504 6.812734 2.737962 2.522224
Spine -5.506458 -19.789529 -3.455448
Head 13.720954 6.495663 13.756556
LeftShoulder -16.281962 18.693489 4.024202
LeftArm 28.093171 38.957564 -66.922131
LeftForeArm -1.245628 -0.000000 17.074716
LeftHand -11.598445 0.000000 -2.539189
LeftHandThumb1 -26.253704 0.000000 33.147579
RightShoulder -16.748798 -10.530103 -21.922479
RightArm 14.990815 -23.577974 35.529471
RightForeArm 17.067120 -0.000000 85.953132
RightHand -15.508416 -0.000000 16.608660
RightHandThumb1 -24.326973 -0.000000 -32.862282
LeftUpLeg -1.844260 1.856553 -0.698986
LeftLeg 0.736955 -0.000000 -0.000000
LeftFoot -19.219879 17.809901 -25.230846
LeftToeBase 8.705528 -0.000000 -0.000000
RightUpLeg -0.715548 -0.923083 -3.329976
RightLeg -2.682105 -0.000000 0.000000
RightFoot -14.929114 -12.601311 9.704680
RightToeBase 4.915877 -0.000000 -0.000000
3160
root -1.461741 31.843439 -6.484010 6.797816 2.739795 2.521789
Spine -5.490265 -19.690621 -3.473387
Head 13.619893 6.104436 13.671523
LeftShoulder -16.283082 18.676823 4.016316
LeftArm 28.219889 38.955203 -66.801336
LeftForeArm -1.245679 -0.000000 17.137352
LeftHand -11.551668 -0.000000 -2.543612
LeftHandThumb1 -26.253704 0.000000 33.147579
RightShoulder -16.571326 -10.560534 -21.978386
RightArm 16.066321 -26.057893 34.434225
RightForeArm 17.310857 -0.000000 85.414439
RightHand -15.602137 -0.000000 17.115195
RightHandThumb1 -24.326973 -0.000000 -32.862282
LeftUpLeg -1.844552 1.860107 -0.695379
LeftLeg 0.752450 -0.000000 -0.000000
LeftFoot -19.220080 17.812557 -25.242794
LeftToeBase 8.668184 -0.000000 -0.000000
RightUpLeg -0.710654 -0.928489 -3.324091
RightLeg -2.679435 -0.000000 0.000000
RightFoot -14.918588 -12.596559 9.679474
RightToeBase 4.900530 -0.000000 -0.000000
